<?xml version="1.0" encoding="iso-8859-1"?>
<!-- Generator: Adobe Illustrator 17.1.0, SVG Export Plug-In . SVG Version: 6.00 Build 0)  -->
<!DOCTYPE svg PUBLIC "-//W3C//DTD SVG 1.1//EN" "http://www.w3.org/Graphics/SVG/1.1/DTD/svg11.dtd">
<svg version="1.1" id="Capa_1" xmlns="http://www.w3.org/2000/svg" xmlns:xlink="http://www.w3.org/1999/xlink" x="0px" y="0px"
	 viewBox="0 0 203.572 203.572" style="enable-background:new 0 0 203.572 203.572;" xml:space="preserve">
<path d="M47.137,203.572c-10.108,0-20.217-3.848-27.912-11.543c-15.392-15.391-15.392-40.434,0-55.825l63.537-63.537
	c5.297-5.297,12.34-8.215,19.832-8.215c7.491,0,14.535,2.917,19.832,8.215c10.936,10.936,10.936,28.729,0,39.665l-50.534,50.534
	c-1.951,1.952-5.119,1.952-7.07,0c-1.953-1.953-1.953-5.119,0-7.071l50.534-50.534c7.036-7.037,7.036-18.486,0-25.522
	c-3.409-3.409-7.941-5.286-12.762-5.286c-4.821,0-9.353,1.877-12.762,5.286l-63.537,63.537c-11.491,11.492-11.491,30.19,0,41.682
	c11.492,11.492,30.191,11.492,41.684,0L174.105,78.83c15.72-15.72,15.72-41.3,0-57.02C166.49,14.194,156.365,10,145.595,10
	c-10.77,0-20.895,4.194-28.51,11.809l-99.15,99.15c-1.951,1.952-5.119,1.952-7.07,0c-1.953-1.953-1.953-5.119,0-7.071l99.15-99.15
	C119.519,5.234,132.154,0,145.595,0c13.441,0,26.077,5.234,35.581,14.738c19.62,19.62,19.62,51.543,0,71.163L75.049,192.029
	C67.354,199.724,57.245,203.572,47.137,203.572z"/>
<g>
</g>
<g>
</g>
<g>
</g>
<g>
</g>
<g>
</g>
<g>
</g>
<g>
</g>
<g>
</g>
<g>
</g>
<g>
</g>
<g>
</g>
<g>
</g>
<g>
</g>
<g>
</g>
<g>
</g>
</svg>
